<?xml version="1.0" encoding="UTF-8"?>
<svg id="Layer_2" data-name="Layer 2" xmlns="http://www.w3.org/2000/svg" viewBox="0 0 133.78 134.73">
  <defs>
    <style>
      .cls-1 {
        fill: #d7df23;
      }

      .cls-1, .cls-2 {
        stroke-width: 0px;
      }

      .cls-2 {
        fill: #fdfdfd;
      }
    </style>
  </defs>
  <g id="Layer_1-2" data-name="Layer 1">
    <g>
      <path class="cls-1" d="M89.92,105.77c4.76-1.62,9.21-3.92,13.6-6.33,7.27-3.99,13.78-8.94,19.26-15.19,3.89-4.43,7.22-9.26,10.07-14.43.21-.39.43-.77.76-1.12.23,2.72-.09,5.38-.45,8.03-1.34,9.88-4.7,19.05-10.16,27.38-8.23,12.53-19.32,21.59-33.39,26.93-1.96.74-2,.74-1.96-1.36.09-4.63-.24-9.27.21-13.9.22-2.31,1.23-4.48,1.17-6.84-.03-1.17-.6-1.94-1.77-1.96-3.33-.05-6.66-.03-9.99-.02-.97,0-1.54.55-1.83,1.46-.34,1.06-.16,2.11.12,3.12.84,3.03,1.12,6.12,1.1,9.25-.03,4.17,0,8.35,0,12.52,0,.39.21.93-.33,1.1-.68.22-1.4.3-2.12.23-.08,0-.2-.27-.19-.41.08-1.59-.53-3.06-.81-4.59-.41-2.24-.62-4.5-.61-6.79.03-6.03.04-12.06.03-18.09,0-2.51.4-4.95,1.04-7.36.22-.82.41-1.63.38-2.49-.06-1.59-.75-2.3-2.36-2.31-3.08-.02-6.16-.01-9.23,0-1.3,0-1.93.58-2.12,1.85-.14.94.05,1.85.29,2.75.82,3.07,1.17,6.19,1.12,9.38-.07,5.23-.03,10.46,0,15.68.02,3.26-.27,6.48-1.12,9.64-.12.45-.21.9-.29,1.36-.26,1.62-.25,1.55-1.85,1.39-.93-.09-.93-.59-.93-1.27.01-5.48.06-10.96,0-16.44-.06-4.4.17-8.74,1.34-13.03.66-2.41-.37-3.56-2.88-3.56-2.74,0-5.48,0-8.22.02-1.6,0-2.27.65-2.41,2.26-.06.73.1,1.43.28,2.12.7,2.79,1.07,5.62,1.04,8.51-.05,5.82-.06,11.64-.03,17.45,0,1.02-.21,1.2-1.19.87-8.04-2.75-15.26-6.94-21.66-12.5-11.96-10.38-19.63-23.3-22.61-38.91C.17,74.69-.2,69.15.1,63.57c.01-.25.04-.5.09-.75.02-.1.11-.19.29-.5,9.23,18.63,24.9,29.33,43.61,36.31.26-.15.17-.3.1-.45-5.27-11.02-12.36-20.57-22.41-27.72-6.17-4.39-12.93-7.57-20.22-9.63-1-.28-1.2-.66-1.08-1.64.79-6.76,2.7-13.19,5.46-19.39,2.61-5.84,5.96-11.23,10.15-16.05C30.57,7.13,48.87-.92,70.88.08c15.12.69,28.43,6.36,39.83,16.31,9.35,8.16,15.86,18.23,19.73,30.04,2.02,6.18,3.11,12.49,3.34,18.97.04,1.19-.12,1.82-1.57,2.23-4.94,1.38-9.65,3.41-14.09,6.01-9.61,5.62-17.35,13.16-23.28,22.58-1.91,3.03-3.71,6.11-4.99,9.48-.04.05-.09.09-.13.15,0,0,.05.05.07.08.04-.05.09-.1.13-.14M67.08,91.01h0c1.56,0,3.12.01,4.68-.01,1.52-.02,2.22-.73,2.28-2.25.04-.94-.13-1.84-.37-2.74-.66-2.49-1.04-5.02-1.02-7.61.03-6.28.04-12.56.04-18.84,0-2.29.33-4.53.96-6.73.23-.81.45-1.62.43-2.48-.03-1.77-.69-2.47-2.44-2.49-3.04-.02-6.07-.02-9.11-.01-1.3,0-1.94.56-2.15,1.82-.17,1.02.06,2.01.32,2.99.65,2.5,1.07,5.01,1.06,7.61-.03,6.03,0,12.06,0,18.08,0,1.52-.11,3.03-.38,4.53-.34,1.86-.83,3.7-1.03,5.58-.19,1.8.64,2.55,2.44,2.57,1.43,0,2.87,0,4.3,0M52.27,98.68h0c1.56-.01,3.12.01,4.68-.02,1.33-.02,1.99-.7,2.08-2.02.06-.94-.12-1.84-.34-2.75-.71-2.87-1.13-5.77-1.1-8.74.05-5.77.03-11.55.04-17.32,0-1.73.23-3.43.53-5.14.29-1.65,1-3.23.89-4.95-.08-1.32-.84-2.15-2.14-2.16-3.16-.03-6.32,0-9.48,0-1.11,0-1.69.61-1.94,1.63-.25,1.07,0,2.09.26,3.12.61,2.55.98,5.12.96,7.75-.04,5.86-.04,11.71,0,17.57.01,2.5-.22,4.96-.75,7.4-.25,1.15-.63,2.28-.53,3.49.13,1.45.82,2.11,2.27,2.13,1.52.02,3.03,0,4.55,0M76.7,84.64c-.17,4.1.34,8.62-.46,13.1-.27,1.53-.66,3.04-.9,4.58-.31,1.98.56,2.96,2.53,2.97,2.95,0,5.9.02,8.85,0,1.48-.01,2.15-.69,2.23-2.15.06-1.02-.16-2.01-.39-3-.57-2.47-.93-4.96-.92-7.51.04-6.07.04-12.13.02-18.2,0-2.29.3-4.53.84-6.75.24-.98.48-1.97.56-2.97.12-1.65-.7-2.46-2.34-2.46-2.91,0-5.81-.02-8.72,0-2.01,0-2.81.88-2.64,2.91.05.63.17,1.25.32,1.86.42,1.68.74,3.37.86,5.1.29,4.04.07,8.09.16,12.52M46.71,28.41c0,3.58-.05,7.08.01,10.57.07,3.73-.24,7.4-1.15,11.02-.17.66-.24,1.33-.13,2,.21,1.29.83,1.85,2.12,1.86,3.12.02,6.24.03,9.35.01,1.36,0,2.03-.72,2.11-2.1.06-.98-.13-1.93-.36-2.87-.64-2.67-1.01-5.37-.98-8.13.05-4.89.05-9.77.05-14.66,0-.29.21-.66-.11-.87-3.16,2.62-6.29,5.13-10.92,3.16M76.66,34.88c0,4.63,0,9.13,0,13.64,0,1.5-.4,2.95-.53,4.42-.15,1.6-.65,3.12-.82,4.7-.23,2.06.62,3.03,2.67,3.03,2.61,0,5.23,0,7.84-.02,2.79-.02,3.51-.86,3.12-3.63-.06-.46-.17-.91-.29-1.36-.41-1.6-.7-3.21-.82-4.85-.38-5.01-.06-10.03-.15-15.04-.02-1.24,0-2.49,0-3.9-3.24,2.77-6.45,5-11.02,3.02M61.75,20.75v1.16c0,3.62,0,7.25,0,10.87,0,3.02-.34,6-1.1,8.93-.17.65-.3,1.32-.33,1.99-.06,1.73.68,2.47,2.41,2.48,3.03.02,6.07.02,9.1.02,1.41,0,2.11-.64,2.21-2.04.05-.71-.04-1.41-.2-2.12-.61-2.75-1.17-5.51-1.15-8.35.05-5.14.05-10.28.05-15.42,0-.29.19-.66-.16-.89-3.08,2.78-6.25,5.14-10.84,3.36M99.24,72.69c-7.42,8.14-10.59,17.4-9.48,28.21,6.85-8.12,10.27-17.3,9.48-28.21M44.13,93.58c1.55-9.1-3.55-24.28-9.3-27.85-.83,10.57,2.42,19.75,9.3,27.85M49.95,27.64c2.86-.3,5.56-1.82,7.49-4.5,1.3-1.81.34-3.66-1.9-3.65-3.41.02-6.14,1.55-8.17,4.27-.62.83-1.02,1.81-.45,2.83.55.97,1.56,1.04,3.02,1.06M80.04,34.2c2.72-.36,5.41-1.73,7.38-4.39.22-.29.35-.67.44-1.03.34-1.29-.21-2.24-1.5-2.6-.66-.18-1.34-.23-2-.09-2.75.58-5.16,1.77-6.88,4.09-.65.87-1.17,1.85-.6,2.91.54,1.01,1.6,1.13,3.16,1.11M64.8,19.91c3.04-.45,5.86-1.88,7.73-4.79.98-1.51.25-2.94-1.51-3.28-2.72-.52-7.05,1.54-8.69,4.15-.56.88-.97,1.85-.42,2.85.54.99,1.58.99,2.89,1.06"/>
      <path class="cls-2" d="M89.92,105.76s-.09.1-.13.15c-.02-.03-.07-.07-.07-.08.04-.05.08-.1.13-.15,0,0,.07.08.07.08"/>
    </g>
  </g>
</svg>