<?xml version="1.0" encoding="UTF-8"?>
<svg id="Layer_2" data-name="Layer 2" xmlns="http://www.w3.org/2000/svg" viewBox="0 0 210.7 203.39">
  <defs>
    <style>
      .cls-1 {
        fill: #d7df23;
      }

      .cls-1, .cls-2, .cls-3, .cls-4 {
        stroke-width: 0px;
      }

      .cls-2 {
        fill: #fff;
      }

      .cls-3 {
        fill: #fdfdfd;
      }

      .cls-4 {
        fill: #184d2a;
      }
    </style>
  </defs>
  <g id="Layer_1-2" data-name="Layer 1">
    <g>
      <g>
        <path class="cls-1" d="M128.32,134.87c4.76-1.62,9.21-3.92,13.6-6.33,7.27-3.99,13.78-8.94,19.26-15.19,3.89-4.43,7.22-9.26,10.07-14.43.21-.39.43-.77.76-1.12.23,2.72-.09,5.38-.45,8.03-1.34,9.88-4.7,19.05-10.16,27.38-8.23,12.53-19.32,21.59-33.39,26.93-1.96.74-2,.74-1.96-1.36.09-4.63-.24-9.27.21-13.9.22-2.31,1.23-4.48,1.17-6.84-.03-1.17-.6-1.94-1.77-1.96-3.33-.05-6.66-.03-9.99-.02-.97,0-1.54.55-1.83,1.46-.34,1.06-.16,2.11.12,3.12.84,3.03,1.12,6.12,1.1,9.25-.03,4.17,0,8.35,0,12.52,0,.39.21.93-.33,1.1-.68.22-1.4.3-2.12.23-.08,0-.2-.27-.19-.41.08-1.59-.53-3.06-.81-4.59-.41-2.24-.62-4.5-.61-6.79.03-6.03.04-12.06.03-18.09,0-2.51.4-4.95,1.04-7.36.22-.82.41-1.63.38-2.49-.06-1.59-.75-2.3-2.36-2.31-3.08-.02-6.16-.01-9.23,0-1.3,0-1.93.58-2.12,1.85-.14.94.05,1.85.29,2.75.82,3.07,1.17,6.19,1.12,9.38-.07,5.23-.03,10.46,0,15.68.02,3.26-.27,6.48-1.12,9.64-.12.45-.21.9-.29,1.36-.26,1.62-.25,1.55-1.85,1.39-.93-.09-.93-.59-.93-1.27.01-5.48.06-10.96,0-16.44-.06-4.4.17-8.74,1.34-13.03.66-2.41-.37-3.56-2.88-3.56-2.74,0-5.48,0-8.22.02-1.6,0-2.27.65-2.41,2.26-.06.73.1,1.43.28,2.12.7,2.79,1.07,5.62,1.04,8.51-.05,5.82-.06,11.64-.03,17.45,0,1.02-.21,1.2-1.19.87-8.04-2.75-15.26-6.94-21.66-12.5-11.96-10.38-19.63-23.3-22.61-38.91-1.05-5.49-1.42-11.03-1.11-16.61.01-.25.04-.5.09-.75.02-.1.11-.19.29-.5,9.23,18.63,24.9,29.33,43.61,36.31.26-.15.17-.3.1-.45-5.27-11.02-12.36-20.57-22.41-27.72-6.17-4.39-12.93-7.57-20.22-9.63-1-.28-1.2-.66-1.08-1.64.79-6.76,2.7-13.19,5.46-19.39,2.61-5.84,5.96-11.23,10.15-16.05,14.47-16.63,32.77-24.68,54.78-23.67,15.12.69,28.43,6.36,39.83,16.31,9.35,8.16,15.86,18.23,19.73,30.04,2.02,6.18,3.11,12.49,3.34,18.97.04,1.19-.12,1.82-1.57,2.23-4.94,1.38-9.65,3.41-14.09,6.01-9.61,5.62-17.35,13.16-23.28,22.58-1.91,3.03-3.71,6.11-4.99,9.48-.04.05-.09.09-.13.15,0,0,.05.05.07.08.04-.05.09-.1.13-.14M105.47,120.12h0c1.56,0,3.12.01,4.68-.01,1.52-.02,2.22-.73,2.28-2.25.04-.94-.13-1.84-.37-2.74-.66-2.49-1.04-5.02-1.02-7.61.03-6.28.04-12.56.04-18.84,0-2.29.33-4.53.96-6.73.23-.81.45-1.62.43-2.48-.03-1.77-.69-2.47-2.44-2.49-3.04-.02-6.07-.02-9.11-.01-1.3,0-1.94.56-2.15,1.82-.17,1.02.06,2.01.32,2.99.65,2.5,1.07,5.01,1.06,7.61-.03,6.03,0,12.06,0,18.08,0,1.52-.11,3.03-.38,4.53-.34,1.86-.83,3.7-1.03,5.58-.19,1.8.64,2.55,2.44,2.57,1.43,0,2.87,0,4.3,0M90.67,127.78h0c1.56-.01,3.12.01,4.68-.02,1.33-.02,1.99-.7,2.08-2.02.06-.94-.12-1.84-.34-2.75-.71-2.87-1.13-5.77-1.1-8.74.05-5.77.03-11.55.04-17.32,0-1.73.23-3.43.53-5.14.29-1.65,1-3.23.89-4.95-.08-1.32-.84-2.15-2.14-2.16-3.16-.03-6.32,0-9.48,0-1.11,0-1.69.61-1.94,1.63-.25,1.07,0,2.09.26,3.12.61,2.55.98,5.12.96,7.75-.04,5.86-.04,11.71,0,17.57.01,2.5-.22,4.96-.75,7.4-.25,1.15-.63,2.28-.53,3.49.13,1.45.82,2.11,2.27,2.13,1.52.02,3.03,0,4.55,0M115.1,113.74c-.17,4.1.34,8.62-.46,13.1-.27,1.53-.66,3.04-.9,4.58-.31,1.98.56,2.96,2.53,2.97,2.95,0,5.9.02,8.85,0,1.48-.01,2.15-.69,2.23-2.15.06-1.02-.16-2.01-.39-3-.57-2.47-.93-4.96-.92-7.51.04-6.07.04-12.13.02-18.2,0-2.29.3-4.53.84-6.75.24-.98.48-1.97.56-2.97.12-1.65-.7-2.46-2.34-2.46-2.91,0-5.81-.02-8.72,0-2.01,0-2.81.88-2.64,2.91.05.63.17,1.25.32,1.86.42,1.68.74,3.37.86,5.1.29,4.04.07,8.09.16,12.52M85.11,57.51c0,3.58-.05,7.08.01,10.57.07,3.73-.24,7.4-1.15,11.02-.17.66-.24,1.33-.13,2,.21,1.29.83,1.85,2.12,1.86,3.12.02,6.24.03,9.35.01,1.36,0,2.03-.72,2.11-2.1.06-.98-.13-1.93-.36-2.87-.64-2.67-1.01-5.37-.98-8.13.05-4.89.05-9.77.05-14.66,0-.29.21-.66-.11-.87-3.16,2.62-6.29,5.13-10.92,3.16M115.06,63.99c0,4.63,0,9.13,0,13.64,0,1.5-.4,2.95-.53,4.42-.15,1.6-.65,3.12-.82,4.7-.23,2.06.62,3.03,2.67,3.03,2.61,0,5.23,0,7.84-.02,2.79-.02,3.51-.86,3.12-3.63-.06-.46-.17-.91-.29-1.36-.41-1.6-.7-3.21-.82-4.85-.38-5.01-.06-10.03-.15-15.04-.02-1.24,0-2.49,0-3.9-3.24,2.77-6.45,5-11.02,3.02M100.14,49.86v1.16c0,3.62,0,7.25,0,10.87,0,3.02-.34,6-1.1,8.93-.17.65-.3,1.32-.33,1.99-.06,1.73.68,2.47,2.41,2.48,3.03.02,6.07.02,9.1.02,1.41,0,2.11-.64,2.21-2.04.05-.71-.04-1.41-.2-2.12-.61-2.75-1.17-5.51-1.15-8.35.05-5.14.05-10.28.05-15.42,0-.29.19-.66-.16-.89-3.08,2.78-6.25,5.14-10.84,3.36M137.63,101.8c-7.42,8.14-10.59,17.4-9.48,28.21,6.85-8.12,10.27-17.3,9.48-28.21M82.52,122.69c1.55-9.1-3.55-24.28-9.3-27.85-.83,10.57,2.42,19.75,9.3,27.85M88.34,56.75c2.86-.3,5.56-1.82,7.49-4.5,1.3-1.81.34-3.66-1.9-3.65-3.41.02-6.14,1.55-8.17,4.27-.62.83-1.02,1.81-.45,2.83.55.97,1.56,1.04,3.02,1.06M118.44,63.31c2.72-.36,5.41-1.73,7.38-4.39.22-.29.35-.67.44-1.03.34-1.29-.21-2.24-1.5-2.6-.66-.18-1.34-.23-2-.09-2.75.58-5.16,1.77-6.88,4.09-.65.87-1.17,1.85-.6,2.91.54,1.01,1.6,1.13,3.16,1.11M103.2,49.02c3.04-.45,5.86-1.88,7.73-4.79.98-1.51.25-2.94-1.51-3.28-2.72-.52-7.05,1.54-8.69,4.15-.56.88-.97,1.85-.42,2.85.54.99,1.58.99,2.89,1.06"/>
        <path class="cls-2" d="M195.5,157.22c-.19-.09-.38-.18-.57-.27-.92-.49-1.88-1.65-2.7-1.38-.78.26-1.2,1.62-1.79,2.49-8.95,13.2-20.31,23.8-34.2,31.67-7.62,4.32-15.66,7.63-24.1,9.97-4.87,1.35-9.81,2.29-14.81,2.98-6.56.91-13.13.8-19.73.48-2.99-.14-5.89-.7-8.81-1.2-19.07-3.26-35.94-11.25-50.64-23.8-7.28-6.22-13.52-13.4-18.83-21.39-.96-1.44-.95-1.44-2.5-.54-.65.38-1.31.75-1.97,1.12-.03.02-.08,0-.28,0,.37-2.22,1.03-4.33,1.78-6.41.1-.27.48-.46.76-.63,8.58-5.34,17.18-10.66,25.75-16.03.7-.44.95-.29,1.32.33,3.25,5.44,7.04,10.47,11.63,14.84,2.45,2.33,5,4.54,7.7,6.61,9.1,7,19.34,11.28,30.58,13.06,18.3,2.9,35.2-.99,50.57-11.28,8.93-5.98,15.89-13.89,21.54-22.98.51-.82.81-.96,1.67-.42,8.54,5.33,17.11,10.62,25.68,15.9.54.33.87.72,1.01,1.35.39,1.76,1.13,3.44,1.2,5.28-.09.08-.18.15-.27.23"/>
        <path class="cls-2" d="M197.67,157.16c-.47-1.95-.9-3.75-1.32-5.55-.35-1.52-1.22-2.59-2.57-3.41-6.77-4.1-13.5-8.26-20.25-12.39-1.52-.93-1.58-.93-.73-3.03,2.41-6,4.07-12.2,5.28-18.53.39-2.07.71-4.15.97-6.24.12-.99.43-.89,1.04-.39,3.79,3.08,7.6,6.12,11.36,9.23.72.59,1.36.76,2.27.66,5.31-.61,10.64-1.14,15.96-1.7.61-.06,1.13-.22,1,.81-1.86,14.12-6.19,27.46-12.69,40.11-.05.11-.14.2-.31.44"/>
        <path class="cls-2" d="M31.35,107.03c.49,3.6.95,6.97,1.68,10.29,1.24,5.64,2.78,11.19,4.92,16.55.36.9.16,1.29-.63,1.77-6.9,4.22-13.77,8.5-20.67,12.72-1.11.68-1.87,1.54-2.21,2.78-.53,1.91-1.07,3.81-1.61,5.72-.33.05-.35-.25-.46-.46-4.96-9.82-8.6-20.11-10.88-30.88-.5-2.39-.89-4.79-1.27-7.19-.02-.12-.03-.25-.05-.38-.34-2.08-.34-2.11,1.84-1.9,4.82.48,9.65.96,14.46,1.5,1.08.12,1.89-.08,2.74-.81,3.87-3.32,7.85-6.5,12.14-9.73"/>
        <path class="cls-3" d="M128.32,134.87s-.09.1-.13.15c-.02-.03-.07-.07-.07-.08.04-.05.08-.1.13-.15,0,0,.07.08.07.08"/>
      </g>
      <path class="cls-2" d="M16.66,94.87l5.97.42-.29,4.11-17.01-1.19.47-6.66c.14-2.02.75-3.53,1.83-4.51s2.47-1.42,4.17-1.3c1.06.07,1.98.38,2.78.91.79.53,1.39,1.28,1.8,2.24.41.96.56,2.11.47,3.44l-.18,2.55ZM11.49,89.92c-1.49-.11-2.3.67-2.41,2.32l-.15,2.09,4.43.31.15-2.09c.12-1.65-.56-2.53-2.02-2.63Z"/>
      <path class="cls-2" d="M25.84,76.08l-7.16,1.94-.24.91,6.23,1.63-1.05,3.99-16.49-4.32,1.78-6.81c.34-1.31.86-2.35,1.54-3.13.69-.78,1.48-1.3,2.39-1.54.9-.25,1.86-.24,2.87.03,1.2.31,2.13.91,2.8,1.79.67.88.99,1.99.97,3.33l7.51-2.22-1.16,4.41ZM15.71,78.21l.65-2.47c.21-.79.19-1.42-.07-1.89-.25-.46-.72-.79-1.4-.97-.65-.17-1.22-.11-1.69.17-.47.28-.81.81-1.02,1.59l-.65,2.47,4.18,1.09Z"/>
      <path class="cls-2" d="M13.87,59.35l15.74,6.56-1.59,3.81-15.74-6.56,1.59-3.81Z"/>
      <path class="cls-2" d="M26.5,37.75l14.24,9.16-2.23,3.47-8.9-5.73,6.92,8.81-1.93,3-10.92-2.64,8.92,5.74-2.23,3.47-14.24-9.16,2.73-4.24,12.41,2.51-7.48-10.17,2.71-4.22Z"/>
      <path class="cls-2" d="M35.99,32.43l2.53,2.52,4.07-4.08,2.2,2.19-4.07,4.08,2.68,2.67,4.58-4.6,2.34,2.33-7.49,7.52-12.08-12.03,7.49-7.52,2.32,2.31-4.58,4.6Z"/>
      <path class="cls-2" d="M59.65,12.63c1.81.26,3.38,1.13,4.73,2.59l-3.76,2.21c-.68-.52-1.42-.8-2.22-.85-.8-.05-1.6.16-2.39.62-1.04.61-1.65,1.49-1.84,2.62-.19,1.14.09,2.34.84,3.62.75,1.27,1.66,2.1,2.75,2.48,1.08.38,2.14.27,3.18-.35.79-.46,1.36-1.06,1.7-1.79.35-.73.46-1.5.35-2.33l3.76-2.21c.62,1.87.61,3.67-.04,5.38-.64,1.71-1.9,3.12-3.77,4.22-1.43.84-2.87,1.26-4.32,1.27-1.45,0-2.81-.39-4.06-1.18-1.26-.79-2.31-1.91-3.17-3.37s-1.32-2.92-1.4-4.41c-.08-1.48.24-2.86.95-4.12.71-1.27,1.78-2.32,3.2-3.16,1.87-1.1,3.71-1.52,5.51-1.26Z"/>
      <path class="cls-2" d="M81.04,17.57l-6.08,1.97-.05,3.29-4.13,1.34.73-18.03,4.52-1.46,11.15,14.19-4.18,1.35-1.97-2.63ZM79.07,14.91l-3.95-5.31-.11,6.63,4.06-1.31Z"/>
      <path class="cls-2" d="M103.74,17.16l-4.1.41-7.9-9.73,1.04,10.41-4.1.41-1.69-16.97,4.1-.41,7.91,9.83-1.05-10.51,4.1-.41,1.69,16.97Z"/>
      <path class="cls-2" d="M111.93,4.05l-.32,3.55,5.74.52-.28,3.1-5.74-.52-.34,3.77,6.46.59-.3,3.29-10.57-.96,1.55-16.98,10.57.96-.3,3.27-6.46-.59Z"/>
      <path class="cls-2" d="M128.91,19.79c-.31-2.76,0-5.55.94-8.38s2.35-5.25,4.24-7.27c1.89-2.03,3.97-3.41,6.25-4.14l2.22.73-.07.21c-2.65.95-4.87,2.41-6.67,4.39s-3.11,4.23-3.95,6.77c-.84,2.54-1.13,5.14-.87,7.8s1.18,5.16,2.74,7.49l-.07.21-2.22-.73c-1.39-1.95-2.23-4.3-2.54-7.06Z"/>
      <path class="cls-2" d="M153.61,15.61c.44,1.27.33,2.54-.34,3.8s-1.64,2.08-2.92,2.45c-1.28.37-2.78.1-4.5-.81l-2.85-1.51-3.23,6.09-1.94-1.03,7.83-14.76,4.79,2.54c1.66.88,2.72,1.96,3.16,3.23ZM143.81,18l2.86,1.51c1.06.56,1.99.74,2.76.53.78-.22,1.4-.76,1.87-1.64.99-1.86.43-3.35-1.67-4.46l-2.86-1.51-2.96,5.58Z"/>
      <path class="cls-2" d="M154.1,34.56l5.37-17.09,1.83,1.46-4.83,14.52,13.1-7.94,1.83,1.46-15.44,9.07-1.85-1.47Z"/>
      <path class="cls-2" d="M173.32,31.48l1.33-1.16,7.25,8.3-1.33,1.16-2.9-3.32-11.26,9.84-1.44-1.65,11.26-9.84-2.9-3.32Z"/>
      <path class="cls-2" d="M189.65,48.01c-1.53,2.31-3.57,4.24-6.1,5.8-2.53,1.56-5.17,2.51-7.93,2.85-2.76.34-5.24.06-7.46-.84l-1.23-1.99.18-.11c2.62.97,5.26,1.28,7.91.93s5.12-1.23,7.4-2.64,4.17-3.21,5.67-5.42c1.5-2.21,2.41-4.71,2.73-7.49l.18-.11,1.23,1.99c-.19,2.39-1.05,4.73-2.59,7.04Z"/>
      <path class="cls-2" d="M196.72,65.73l.67,2.09-14.3,4.6,1.79,5.58-1.61.52-2.47-7.67,15.91-5.12Z"/>
      <path class="cls-2" d="M198.48,77.67l1.74-.29,1.83,10.87-1.74.29-.73-4.35-14.74,2.49-.37-2.16,14.74-2.49-.74-4.35Z"/>
      <path class="cls-2" d="M202.52,99.45c-.04,2.7-.83,4.82-2.37,6.35-1.54,1.54-3.61,2.28-6.21,2.24-2.6-.04-4.62-.85-6.05-2.44-1.43-1.58-2.12-3.72-2.08-6.42l.08-5.28,16.71.26-.08,5.28ZM187.55,96.13l-.05,3.09c-.03,2.11.52,3.72,1.66,4.85,1.14,1.13,2.75,1.71,4.82,1.74,2.07.03,3.7-.5,4.87-1.59s1.78-2.69,1.81-4.79l.05-3.09-13.17-.21Z"/>
      <path class="cls-4" d="M37.06,154.68c-.34.02-.68-.06-1.02-.24s-.65-.47-.93-.87c-.42-.6-.63-1.2-.61-1.79.02-.6.28-1.1.78-1.5l.97,1.38c-.19.16-.3.35-.32.55-.03.21.02.41.16.6.12.17.26.27.42.3.16.03.31,0,.46-.11.14-.1.22-.22.25-.38.03-.15.03-.32-.01-.49-.03-.17-.09-.4-.18-.69-.12-.42-.21-.78-.25-1.07-.04-.29-.01-.59.09-.9.11-.31.33-.58.67-.82.32-.23.65-.34,1-.34.35,0,.68.1,1.01.29.33.2.62.48.88.85.42.6.61,1.17.58,1.72-.04.55-.28,1.02-.75,1.42l-.99-1.4c.16-.15.25-.31.28-.49.03-.18-.02-.35-.14-.53-.11-.15-.23-.25-.38-.28-.15-.04-.3,0-.45.11-.13.09-.2.21-.23.35-.03.15-.03.3,0,.47.03.16.09.4.17.69.13.43.21.79.25,1.09.04.3,0,.6-.1.91-.11.31-.33.59-.68.83-.28.2-.59.31-.93.34Z"/>
      <path class="cls-4" d="M44.46,157.03l-4,3.28-1.01-1.23.72-.59c-.33.08-.66.06-.98-.05-.33-.11-.61-.32-.86-.62-.38-.46-.52-.95-.44-1.47.08-.52.39-1,.93-1.44l2.32-1.91,1,1.22-2.17,1.78c-.27.22-.43.47-.46.73-.03.26.05.52.24.75.2.25.44.38.72.39.28.01.56-.1.85-.34l2.12-1.74,1.01,1.23Z"/>
      <path class="cls-4" d="M47.2,160.58c.03.51-.11.99-.44,1.43l-1.02-1.08c.12-.18.18-.36.16-.55-.02-.19-.1-.37-.26-.54-.12-.13-.24-.2-.36-.22-.12-.02-.23.03-.34.12-.12.11-.15.26-.09.43.06.18.18.43.38.75.2.35.36.65.46.9.1.25.14.52.11.8-.03.28-.18.55-.44.8-.22.2-.46.33-.74.37-.28.04-.57,0-.87-.14-.3-.13-.6-.35-.88-.65-.48-.51-.75-1.02-.82-1.54-.06-.52.08-1.01.44-1.47l1.05,1.11c-.14.17-.2.36-.18.56.03.2.13.39.31.58.12.13.25.2.37.21s.24-.03.33-.13c.13-.12.17-.27.11-.45-.06-.18-.19-.43-.39-.77-.21-.33-.36-.62-.46-.87-.1-.24-.14-.5-.11-.78.03-.27.17-.53.43-.78.34-.32.73-.45,1.18-.39.45.06.9.32,1.34.79.45.48.69.97.72,1.48Z"/>
      <path class="cls-4" d="M48.15,166.22l-.94.99-.52-.49c-.44-.42-.68-.85-.72-1.3-.04-.45.18-.93.66-1.43l1.31-1.38-.5-.48.92-.97.5.48.88-.92,1.15,1.09-.88.92.75.72-.92.97-.75-.72-1.33,1.4c-.14.15-.21.28-.2.4,0,.12.08.24.22.38l.36.35Z"/>
      <path class="cls-4" d="M53.53,166.1c.1.32.11.64.01.97l.6-.72,1.21,1.01-3.33,3.97-1.21-1.01.6-.72c-.3.15-.62.2-.95.16-.33-.05-.65-.2-.96-.45-.33-.27-.55-.6-.67-.98s-.13-.79-.02-1.22c.11-.43.34-.86.68-1.27.35-.42.73-.72,1.13-.9.41-.18.81-.24,1.2-.19.4.05.76.22,1.08.49.3.25.51.54.61.86ZM51.57,166.36c-.3.04-.58.21-.83.51-.25.3-.37.61-.36.91.02.3.15.56.42.78.26.21.54.3.85.26.31-.04.59-.2.84-.5.25-.3.37-.6.35-.91-.02-.31-.16-.57-.41-.79-.26-.22-.54-.31-.84-.27Z"/>
      <path class="cls-4" d="M57.45,168.91l-3.1,4.15-1.27-.95,3.1-4.14,1.27.95ZM57.5,166.38c.23-.02.46.05.69.22s.36.37.41.6c.04.23,0,.44-.15.64-.14.19-.33.29-.56.32-.23.02-.46-.05-.69-.22s-.36-.37-.41-.6c-.04-.23,0-.44.14-.63.14-.19.33-.3.57-.32Z"/>
      <path class="cls-4" d="M61.87,172.59c.07.52-.09,1.07-.47,1.65l-1.67,2.5-1.32-.88,1.57-2.35c.19-.29.27-.56.22-.83-.04-.26-.19-.48-.44-.65-.27-.18-.54-.24-.81-.17-.27.07-.51.26-.72.57l-1.52,2.29-1.32-.88,2.87-4.31,1.32.88-.53.79c.3-.17.61-.26.96-.24.34.02.68.13,1.01.35.49.33.78.76.85,1.28Z"/>
      <path class="cls-4" d="M65.92,174.57c.16.3.22.61.19.95l.46-.82,1.38.77-2.53,4.52-1.38-.77.46-.82c-.27.2-.57.31-.91.33-.34.02-.68-.07-1.02-.27-.37-.21-.65-.49-.84-.84-.19-.35-.27-.75-.25-1.2.03-.45.17-.9.43-1.37.27-.47.58-.84.95-1.09.37-.25.75-.39,1.15-.41.4-.02.78.07,1.16.28.35.19.6.44.76.73ZM64.05,175.19c-.29.09-.53.31-.72.66-.19.35-.25.67-.18.96s.26.53.55.69c.29.16.59.2.88.1s.54-.31.73-.64c.19-.34.25-.66.17-.96s-.26-.53-.55-.7c-.3-.17-.59-.2-.88-.11Z"/>
      <path class="cls-4" d="M72.71,178c.22.34.33.72.34,1.17,0,.44-.1.91-.33,1.41-.23.49-.51.87-.86,1.16-.35.28-.72.45-1.11.5-.4.05-.79-.01-1.17-.19-.36-.17-.63-.39-.81-.67-.18-.28-.27-.59-.26-.93l-.39.85-1.44-.67,2.88-6.23,1.44.67-1.1,2.38c.25-.23.54-.36.87-.41.33-.04.68.02,1.04.18.39.18.69.44.91.77ZM69.87,178.24c-.29.12-.51.35-.68.7-.16.35-.19.67-.1.97.1.3.3.52.6.66.31.14.6.16.89.04.28-.12.51-.35.67-.71s.2-.68.11-.97c-.1-.29-.3-.51-.61-.65-.3-.14-.6-.15-.89-.04Z"/>
      <path class="cls-4" d="M76.63,177.49l-2.53,6.38-1.48-.59,2.53-6.38,1.48.59Z"/>
      <path class="cls-4" d="M80.64,183.73l-3.4-1.15c-.11.37-.1.67.01.89.12.22.3.37.57.46.22.08.43.08.61.02.18-.06.33-.17.44-.33l1.59.54c-.18.32-.43.59-.74.79-.31.2-.66.32-1.04.36-.39.04-.79,0-1.19-.14-.48-.16-.87-.41-1.18-.73-.3-.33-.5-.72-.58-1.17s-.04-.93.14-1.44c.17-.52.43-.93.76-1.23.34-.31.73-.5,1.17-.58.44-.08.91-.03,1.39.13.49.16.88.41,1.18.73.3.32.49.7.57,1.13.08.43.04.88-.12,1.35-.04.12-.1.25-.18.39ZM79.37,181.79c-.12-.22-.32-.38-.58-.47-.28-.09-.53-.09-.77.02-.24.1-.42.31-.55.62l1.92.65c.11-.32.11-.59-.01-.81Z"/>
      <path class="cls-4" d="M87.13,186.52l-2.4-.55-.67,1.08-1.63-.37,3.8-5.81,1.78.41.88,6.89-1.64-.38-.13-1.26ZM87,185.25l-.25-2.53-1.35,2.17,1.6.37Z"/>
      <path class="cls-4" d="M93.49,183.82c.25.22.43.49.52.82l.14-.93,1.56.23-.75,5.09c-.07.48-.23.89-.47,1.25-.24.36-.57.62-.98.79s-.9.21-1.46.13c-.77-.11-1.36-.39-1.77-.82-.41-.43-.61-.97-.61-1.61l1.55.23c.02.22.11.39.26.54.16.14.38.24.66.28.32.05.6,0,.83-.17.23-.16.37-.44.43-.85l.13-.9c-.18.29-.42.5-.73.63-.31.14-.66.18-1.05.12-.42-.06-.78-.22-1.09-.49-.3-.26-.52-.6-.65-1.03-.13-.43-.16-.91-.08-1.44.08-.54.24-.99.5-1.36.25-.37.56-.63.92-.79.36-.16.76-.21,1.18-.15.39.06.71.2.97.42ZM91.96,185.06c-.24.19-.38.48-.44.87-.06.39,0,.71.17.96.17.25.43.4.76.45.33.05.62-.02.86-.22.24-.2.39-.48.45-.86.06-.39,0-.71-.18-.96-.18-.26-.43-.41-.76-.45-.34-.05-.62.02-.86.21Z"/>
      <path class="cls-4" d="M99.04,184.44c.33-.16.67-.22,1.04-.19l-.14,1.69-.45-.04c-.42-.04-.75.03-1,.19-.25.16-.39.45-.42.88l-.2,2.35-1.58-.14.44-5.16,1.58.14-.08.97c.22-.3.5-.52.83-.68Z"/>
      <path class="cls-4" d="M102.27,184.39l-.23,5.17-1.59-.07.23-5.17,1.59.07ZM100.89,182.28c.18-.15.41-.22.7-.21.28.01.51.1.68.27.17.16.24.37.23.61-.01.23-.11.43-.29.58-.18.15-.41.22-.7.21-.28-.01-.51-.1-.67-.27s-.24-.37-.23-.6c.01-.24.11-.44.29-.59Z"/>
      <path class="cls-4" d="M107.31,184.91c.45.37.74.87.86,1.51h-1.68c-.05-.21-.15-.38-.31-.51-.16-.12-.35-.18-.59-.18-.28,0-.51.11-.68.33-.18.22-.27.54-.26.96,0,.42.09.74.27.96.18.22.41.33.69.32.24,0,.43-.06.58-.19.15-.12.26-.3.3-.52h1.68c-.11.63-.39,1.14-.84,1.51-.45.37-1.01.56-1.68.56-.51,0-.96-.1-1.35-.31s-.7-.52-.93-.92-.34-.87-.34-1.41c0-.54.1-1.02.32-1.42.22-.4.52-.71.92-.92.39-.22.85-.33,1.35-.33.67,0,1.23.18,1.68.54Z"/>
      <path class="cls-4" d="M114.05,183.98l.41,5.16-1.59.13-.07-.93c-.12.31-.33.57-.6.77-.28.2-.61.32-1,.35-.59.05-1.08-.11-1.46-.48-.38-.37-.6-.9-.65-1.59l-.24-3,1.57-.13.22,2.8c.03.35.14.62.34.8.2.18.45.26.76.23.32-.03.57-.15.73-.37s.24-.52.21-.89l-.22-2.74,1.59-.13Z"/>
      <path class="cls-4" d="M116.39,181.94l.92,6.8-1.57.21-.92-6.8,1.57-.21Z"/>
      <path class="cls-4" d="M121.21,186.71l.24,1.34-.7.12c-.6.11-1.09.04-1.47-.2-.39-.24-.64-.7-.76-1.38l-.33-1.87-.68.12-.23-1.32.68-.12-.22-1.25,1.56-.28.22,1.25,1.02-.18.23,1.32-1.02.18.34,1.9c.04.2.1.33.2.4.1.06.24.08.44.05l.49-.09Z"/>
      <path class="cls-4" d="M126.35,181.61l1.22,5.03-1.55.37-.22-.91c-.07.33-.23.62-.47.86-.24.24-.55.41-.93.5-.58.14-1.08.06-1.52-.25-.43-.3-.73-.79-.89-1.46l-.71-2.92,1.53-.37.66,2.73c.08.34.24.59.46.73.22.15.48.18.78.11.31-.08.54-.23.67-.48.13-.24.15-.55.07-.91l-.64-2.67,1.55-.37Z"/>
      <path class="cls-4" d="M129.63,180.82c.24-.27.54-.46.89-.57l.5,1.62-.43.14c-.4.12-.69.31-.86.55-.17.24-.19.56-.06.97l.7,2.25-1.52.47-1.53-4.95,1.52-.47.29.93c.1-.36.27-.67.51-.94Z"/>
      <path class="cls-4" d="M133.97,179.26c.33.07.61.22.85.46l-.33-.88,1.47-.56,1.84,4.84-1.47.56-.33-.88c-.02.34-.13.64-.33.91-.2.27-.49.47-.86.61-.4.15-.79.19-1.19.11-.39-.08-.75-.27-1.07-.58-.32-.31-.58-.71-.77-1.21-.19-.51-.27-.98-.23-1.43.04-.44.18-.82.42-1.14.24-.32.56-.56.96-.71.37-.14.72-.18,1.05-.11ZM133.24,181.1c-.11.28-.1.61.04.98.14.37.35.62.62.76.27.13.57.14.89.02.31-.12.53-.32.64-.61.12-.29.11-.61-.03-.97-.14-.36-.35-.61-.63-.75-.28-.13-.58-.14-.89-.02-.32.12-.53.32-.65.6Z"/>
      <path class="cls-4" d="M137.64,175.67l2.79,6.27-1.45.64-2.79-6.27,1.45-.64Z"/>
      <path class="cls-4" d="M146.87,177.67c-.02.34-.14.67-.36.98-.22.32-.55.59-.98.82-.65.35-1.27.48-1.86.39-.59-.09-1.06-.41-1.4-.96l1.49-.8c.14.21.31.34.51.39.2.05.4.03.61-.09.18-.1.3-.22.35-.37.05-.15.03-.31-.06-.48-.08-.15-.19-.24-.34-.29-.15-.05-.31-.06-.48-.05-.18.01-.41.05-.71.09-.43.07-.8.11-1.09.12-.29,0-.59-.06-.88-.2-.29-.14-.53-.4-.73-.77-.19-.34-.26-.69-.22-1.03.04-.34.18-.67.41-.96s.55-.56.95-.77c.64-.34,1.24-.47,1.78-.36.54.1.98.41,1.32.91l-1.51.81c-.13-.18-.28-.29-.45-.34-.17-.05-.35-.03-.54.08-.16.09-.27.2-.33.34-.05.14-.04.3.06.47.07.14.18.23.32.28.14.05.3.06.46.05.17-.01.4-.04.71-.09.44-.07.81-.11,1.11-.11.3,0,.6.07.89.21.29.14.54.4.74.78.16.31.24.63.22.97Z"/>
      <path class="cls-4" d="M149.12,171.56c.46-.04.89.06,1.3.27.41.22.76.55,1.05,1.01s.44.91.46,1.38-.09.89-.32,1.29c-.23.4-.56.73-1,1.01-.43.27-.88.43-1.34.47-.46.04-.89-.05-1.3-.27-.41-.22-.76-.55-1.05-1.01s-.44-.91-.46-1.38c-.02-.46.09-.89.32-1.29.23-.4.56-.73,1-1.01.43-.27.88-.43,1.34-.46ZM148.05,173.87c-.06.3.02.62.24.97.22.35.48.56.77.64.29.07.57.03.82-.13.26-.16.41-.39.47-.68.06-.29-.02-.61-.25-.96s-.48-.56-.77-.64c-.29-.08-.56-.03-.82.13-.26.16-.41.39-.47.69Z"/>
      <path class="cls-4" d="M151,167.89l3.96,5.61-1.3.91-3.96-5.61,1.3-.91Z"/>
      <path class="cls-4" d="M156.88,165.5l3.21,4.06-1.25.99-.58-.74c.07.33.05.66-.07.98-.12.32-.33.61-.64.85-.47.37-.96.51-1.48.41-.52-.09-.99-.41-1.42-.96l-1.86-2.36,1.24-.98,1.74,2.21c.22.28.46.43.72.47.26.04.52-.04.76-.23.25-.2.39-.44.41-.71.02-.28-.09-.56-.32-.86l-1.7-2.16,1.25-.99Z"/>
      <path class="cls-4" d="M162.36,165.71l.91,1.02-.53.48c-.45.4-.9.61-1.35.61s-.91-.26-1.37-.77l-1.27-1.42-.52.46-.89-1,.52-.46-.85-.95,1.18-1.06.85.95.77-.69.89.99-.77.69,1.29,1.44c.14.15.26.23.38.24.12,0,.25-.06.4-.19l.37-.33Z"/>
      <path class="cls-4" d="M159.06,160.73c.01-.23.12-.45.33-.65.2-.2.42-.3.66-.31.23,0,.44.08.6.25.16.17.24.37.22.6-.01.23-.12.45-.33.65-.21.2-.42.3-.66.31-.23,0-.43-.07-.6-.24-.17-.17-.25-.38-.23-.61ZM161.55,161.18l3.6,3.72-1.14,1.1-3.6-3.72,1.14-1.1Z"/>
      <path class="cls-4" d="M165.09,157.85c.43-.15.87-.18,1.33-.07.45.1.88.34,1.27.7.39.37.66.77.8,1.22.14.44.15.89.03,1.33s-.35.85-.7,1.23-.74.64-1.18.8c-.43.15-.88.18-1.33.08-.45-.1-.88-.34-1.27-.71-.39-.37-.66-.77-.8-1.21s-.14-.89-.02-1.33c.12-.45.36-.85.71-1.23.35-.38.74-.64,1.17-.79ZM164.64,160.36c.02.3.18.59.49.87s.6.42.9.42c.3,0,.55-.12.76-.34s.3-.48.28-.78-.18-.59-.49-.87c-.3-.28-.61-.42-.91-.42s-.55.11-.76.33c-.21.22-.3.48-.28.79Z"/>
      <path class="cls-4" d="M169.61,152.84c.53-.03,1.06.18,1.6.61l2.35,1.88-.99,1.24-2.2-1.76c-.27-.22-.54-.31-.8-.29-.27.02-.49.15-.68.39-.2.25-.28.51-.24.79s.21.53.51.77l2.15,1.71-.99,1.24-4.05-3.23.99-1.24.74.59c-.15-.31-.2-.63-.16-.98.04-.34.19-.67.44-.98.37-.46.82-.71,1.35-.73Z"/>
      <path class="cls-4" d="M172.39,148.7c.49-.14.99-.09,1.49.13l-.84,1.22c-.2-.08-.39-.1-.57-.04-.18.06-.34.18-.47.37-.1.15-.15.28-.14.4s.08.22.19.3c.13.09.28.09.44,0,.16-.09.38-.27.65-.52.3-.27.56-.49.79-.64.22-.15.48-.25.76-.28.28-.03.58.06.88.27.24.17.42.38.51.65.1.26.11.56.05.88-.07.32-.22.66-.45,1-.4.58-.84.95-1.34,1.12-.49.17-1,.13-1.53-.12l.87-1.26c.2.11.39.13.58.06.19-.07.36-.21.51-.42.1-.15.15-.28.13-.41s-.08-.22-.19-.3c-.15-.1-.3-.11-.46,0-.16.1-.39.28-.67.54-.28.27-.53.48-.75.63-.22.15-.46.24-.73.27-.27.03-.56-.06-.85-.26-.38-.26-.59-.62-.63-1.08-.04-.45.13-.94.49-1.47.37-.54.8-.88,1.3-1.02Z"/>
    </g>
  </g>
</svg>