<?xml version="1.0" encoding="UTF-8"?>
<svg id="Layer_2" data-name="Layer 2" xmlns="http://www.w3.org/2000/svg" viewBox="0 0 210.7 203.39">
  <defs>
    <style>
      .cls-1 {
        fill: #d7df23;
      }

      .cls-1, .cls-2 {
        stroke-width: 0px;
      }

      .cls-2 {
        fill: #184d2a;
      }
    </style>
  </defs>
  <g id="Layer_1-2" data-name="Layer 1">
    <g>
      <path class="cls-1" d="M54.49,52.86c-4.19,4.82-7.54,10.21-10.15,16.05-2.77,6.19-4.67,12.63-5.46,19.39-.12.98.08,1.35,1.08,1.64,7.28,2.06,14.04,5.24,20.22,9.63,10.05,7.15,17.14,16.71,22.41,27.72.07.15.16.3-.1.45-18.71-6.98-34.38-17.68-43.61-36.31-.18.3-.27.39-.29.5-.05.25-.08.5-.09.75-.3,5.58.07,11.13,1.11,16.61,2.98,15.61,10.65,28.52,22.61,38.91,6.4,5.56,13.62,9.74,21.66,12.5.98.34,1.2.16,1.19-.87-.03-5.82-.03-11.64.03-17.45.03-2.89-.34-5.71-1.04-8.51-.17-.7-.34-1.39-.28-2.12.14-1.61.8-2.25,2.41-2.26,2.74-.01,5.48-.02,8.22-.02,2.51,0,3.54,1.15,2.88,3.56-1.17,4.28-1.39,8.62-1.34,13.03.07,5.48.02,10.96,0,16.44,0,.68,0,1.18.93,1.27,1.6.16,1.59.23,1.85-1.39.07-.46.16-.91.29-1.36.85-3.16,1.14-6.37,1.12-9.64-.03-5.23-.07-10.46,0-15.68.04-3.19-.3-6.3-1.12-9.38-.24-.9-.43-1.81-.29-2.75.19-1.27.82-1.84,2.12-1.85,3.08-.02,6.16-.02,9.23,0,1.61.01,2.3.72,2.36,2.31.03.86-.16,1.67-.38,2.49-.64,2.41-1.05,4.85-1.04,7.36.01,6.03,0,12.06-.03,18.09-.01,2.28.2,4.54.61,6.79.28,1.53.88,3,.81,4.59,0,.14.11.4.19.41.72.07,1.44,0,2.12-.23.54-.18.33-.71.33-1.1,0-4.17-.03-8.35,0-12.52.02-3.14-.26-6.22-1.1-9.25-.28-1.01-.46-2.06-.12-3.12.29-.9.85-1.45,1.83-1.46,3.33-.01,6.66-.03,9.99.02,1.16.02,1.74.79,1.77,1.96.06,2.36-.95,4.53-1.17,6.84-.45,4.63-.12,9.27-.21,13.9-.04,2.1,0,2.1,1.96,1.36,14.07-5.33,25.16-14.39,33.39-26.93,5.47-8.33,8.82-17.5,10.16-27.38.36-2.65.69-5.31.45-8.03-.33.35-.55.73-.76,1.12-2.85,5.16-6.18,9.99-10.07,14.43-5.48,6.24-12,11.2-19.26,15.19-4.39,2.41-8.84,4.71-13.6,6.33-.02.02-.04.05-.06.07-.02.03-.05.05-.07.08-.01-.01-.03-.03-.04-.04,0,0,0,0,0,0-.01-.01-.02-.03-.02-.03,0,0,0,0,0,0h0s.04-.05.07-.08c.02-.02.04-.05.06-.07h0c1.28-3.36,3.08-6.44,4.99-9.48,5.92-9.42,13.67-16.96,23.28-22.58,4.44-2.6,9.15-4.62,14.09-6.01,1.46-.41,1.61-1.03,1.57-2.23-.22-6.48-1.31-12.79-3.34-18.97-3.87-11.81-10.38-21.88-19.73-30.04-11.4-9.94-24.7-15.62-39.83-16.31-22.01-1-40.31,7.05-54.78,23.67ZM137.63,101.8c.79,10.9-2.63,20.09-9.48,28.21-1.11-10.81,2.06-20.07,9.48-28.21ZM127.45,93.82c-.08,1-.32,1.99-.56,2.97-.54,2.22-.85,4.45-.84,6.75.02,6.07.02,12.13-.02,18.2-.02,2.55.34,5.04.92,7.51.23.99.45,1.97.39,3-.08,1.46-.75,2.14-2.23,2.15-2.95.02-5.9,0-8.85,0-1.97,0-2.84-.99-2.53-2.97.24-1.54.63-3.05.9-4.58.79-4.48.29-9,.46-13.1-.09-4.44.14-8.48-.16-12.52-.13-1.73-.44-3.42-.86-5.1-.15-.61-.27-1.24-.32-1.86-.16-2.03.63-2.9,2.64-2.91,2.91-.01,5.81,0,8.72,0,1.64,0,2.46.81,2.34,2.46ZM115.87,59.29c1.72-2.32,4.13-3.51,6.88-4.09.66-.14,1.34-.09,2,.09,1.29.36,1.84,1.31,1.5,2.6-.1.36-.23.74-.44,1.03-1.96,2.66-4.65,4.02-7.38,4.39-1.56.02-2.62-.1-3.16-1.11-.57-1.06-.05-2.04.6-2.91ZM113.71,86.74c.18-1.58.68-3.1.82-4.7.13-1.47.53-2.92.53-4.42-.01-4.51,0-9.01,0-13.64,4.56,1.98,7.78-.25,11.02-3.02,0,1.41-.02,2.66,0,3.9.09,5.01-.23,10.03.15,15.04.13,1.64.41,3.26.82,4.85.12.45.22.9.29,1.36.39,2.78-.33,3.62-3.12,3.63-2.61.02-5.23.02-7.84.02-2.05,0-2.9-.97-2.67-3.03ZM100.73,45.11c1.64-2.61,5.97-4.67,8.69-4.15,1.76.33,2.49,1.77,1.51,3.28-1.88,2.91-4.69,4.33-7.73,4.79-1.31-.08-2.35-.08-2.89-1.06-.54-1-.13-1.97.42-2.85ZM99.04,70.83c.77-2.93,1.11-5.91,1.1-8.93,0-3.62,0-7.25,0-10.87v-1.16c4.59,1.77,7.76-.59,10.84-3.36.35.22.16.59.16.89,0,5.14,0,10.28-.05,15.42-.02,2.85.53,5.6,1.15,8.35.16.71.25,1.41.2,2.12-.09,1.39-.79,2.04-2.21,2.04-3.03,0-6.07,0-9.1-.02-1.74-.01-2.48-.75-2.41-2.48.02-.67.16-1.34.33-1.99ZM98.76,78.76c.21-1.27.86-1.82,2.15-1.82,3.04,0,6.07-.01,9.11.01,1.75.01,2.41.72,2.44,2.49.01.86-.2,1.67-.43,2.48-.62,2.2-.96,4.44-.96,6.73,0,6.28,0,12.56-.04,18.84-.01,2.59.36,5.12,1.02,7.61.24.9.41,1.81.37,2.74-.06,1.52-.76,2.23-2.28,2.25-1.56.03-3.12,0-4.68,0h0c-1.43,0-2.87.01-4.3,0-1.8-.01-2.63-.76-2.44-2.57.2-1.87.69-3.72,1.03-5.58.27-1.5.38-3.01.38-4.53,0-6.03-.02-12.06,0-18.08.01-2.59-.41-5.11-1.06-7.61-.26-.98-.49-1.97-.32-2.99ZM96.56,91.8c-.3,1.71-.53,3.41-.53,5.14-.01,5.77,0,11.55-.04,17.32-.03,2.97.39,5.87,1.1,8.74.22.9.4,1.81.34,2.75-.09,1.32-.75,2-2.08,2.02-1.56.03-3.12,0-4.68,0h0c-1.52.01-3.03.03-4.55,0-1.46-.02-2.15-.68-2.27-2.13-.1-1.2.28-2.34.53-3.49.53-2.44.76-4.9.75-7.4-.03-5.86-.04-11.71,0-17.57.02-2.63-.35-5.21-.96-7.75-.25-1.03-.51-2.05-.26-3.12.24-1.02.82-1.63,1.94-1.63,3.16,0,6.32-.03,9.48,0,1.3.01,2.06.84,2.14,2.16.11,1.72-.6,3.3-.89,4.95ZM85.77,52.86c2.03-2.73,4.77-4.25,8.17-4.27,2.23-.01,3.2,1.84,1.9,3.65-1.94,2.69-4.63,4.2-7.49,4.5-1.47-.01-2.47-.08-3.02-1.06-.57-1.02-.17-1.99.45-2.83ZM83.97,79.11c.9-3.62,1.22-7.3,1.15-11.02-.06-3.49-.01-6.99-.01-10.57,4.63,1.97,7.76-.53,10.92-3.16.32.21.11.58.11.87,0,4.89,0,9.77-.05,14.66-.03,2.76.34,5.46.98,8.13.23.94.41,1.89.36,2.87-.08,1.38-.76,2.1-2.11,2.1-3.12.02-6.24.01-9.35-.01-1.29,0-1.91-.58-2.12-1.86-.11-.68-.04-1.34.13-2ZM73.22,94.84c5.75,3.56,10.85,18.75,9.3,27.85-6.88-8.09-10.13-17.28-9.3-27.85Z"/>
      <path class="cls-2" d="M78.78,181.32c-.28-.09-.53-.09-.77.02-.24.1-.42.31-.55.62l1.92.65c.11-.32.11-.59-.01-.81-.12-.22-.32-.38-.58-.47Z"/>
      <path class="cls-2" d="M149.34,173.05c-.29-.08-.56-.03-.82.13-.26.16-.41.39-.47.69-.06.3.02.62.24.97.22.35.48.56.77.64.29.07.57.03.82-.13.26-.16.41-.39.47-.68.06-.29-.02-.61-.25-.96s-.48-.56-.77-.64Z"/>
      <polygon class="cls-2" points="85.4 184.88 87 185.25 86.75 182.72 85.4 184.88"/>
      <path class="cls-2" d="M134.78,180.52c-.28-.13-.58-.14-.89-.02-.32.12-.53.32-.65.6-.11.28-.1.61.04.98.14.37.35.62.62.76.27.13.57.14.89.02.31-.12.53-.32.64-.61.12-.29.11-.61-.03-.97-.14-.36-.35-.61-.63-.75Z"/>
      <path class="cls-2" d="M193.56,150.35c-8.57-5.28-17.14-10.57-25.68-15.9-.86-.54-1.16-.4-1.67.42-5.65,9.09-12.61,17-21.54,22.98-15.37,10.29-32.27,14.18-50.57,11.28-11.25-1.78-21.49-6.06-30.58-13.06-2.7-2.07-5.25-4.28-7.7-6.61-4.59-4.37-8.38-9.41-11.63-14.84-.37-.63-.62-.77-1.32-.33-8.57,5.37-17.16,10.69-25.75,16.03-.28.18-.66.36-.76.63-.75,2.08-1.41,4.19-1.78,6.41.19,0,.25.02.28,0,.66-.37,1.32-.74,1.97-1.12,1.55-.9,1.54-.9,2.5.54,5.31,7.98,11.54,15.17,18.83,21.39,14.7,12.55,31.57,20.54,50.64,23.8,2.92.5,5.82,1.06,8.81,1.2,6.59.32,13.17.43,19.73-.48,5-.69,9.95-1.63,14.81-2.98,8.44-2.34,16.48-5.66,24.1-9.97,13.89-7.87,25.25-18.47,34.2-31.67.59-.87,1-2.23,1.79-2.49.82-.27,1.78.89,2.7,1.38.18.1.38.18.57.27.09-.08.18-.15.27-.23-.07-1.84-.81-3.52-1.2-5.28-.14-.63-.47-1.02-1.01-1.35ZM159.39,160.08c.2-.2.42-.3.66-.31.23,0,.44.08.6.25.16.17.24.37.22.6-.01.23-.12.45-.33.65-.21.2-.42.3-.66.31-.23,0-.43-.07-.6-.24-.17-.17-.25-.38-.23-.61.01-.23.12-.45.33-.65ZM56.94,166.7c.14-.19.33-.3.57-.32.23-.02.46.05.69.22.23.17.36.37.41.6.04.23,0,.44-.15.64-.14.19-.33.29-.56.32-.23.02-.46-.05-.69-.22-.23-.17-.36-.37-.41-.6-.04-.23,0-.44.14-.63ZM36.04,154.45c-.34-.18-.65-.47-.93-.87-.42-.6-.63-1.2-.61-1.79.02-.6.28-1.1.78-1.5l.97,1.38c-.19.16-.3.35-.32.55-.03.21.02.41.16.6.12.17.26.27.42.3.16.03.31,0,.46-.11.14-.1.22-.22.25-.38.03-.15.03-.32-.01-.49-.03-.17-.09-.4-.18-.69-.12-.42-.21-.78-.25-1.07-.04-.29-.01-.59.09-.9.11-.31.33-.58.67-.82.32-.23.65-.34,1-.34.35,0,.68.1,1.01.29.33.2.62.48.88.85.42.6.61,1.17.58,1.72-.04.55-.28,1.02-.75,1.42l-.99-1.4c.16-.15.25-.31.28-.49.03-.18-.02-.35-.14-.53-.11-.15-.23-.25-.38-.28-.15-.04-.3,0-.45.11-.13.09-.2.21-.23.35-.03.15-.03.3,0,.47.03.16.09.4.17.69.13.43.21.79.25,1.09.04.3,0,.6-.1.91-.11.31-.33.59-.68.83-.28.2-.59.31-.93.34-.34.02-.68-.06-1.02-.24ZM39.44,159.08l.72-.59c-.33.08-.66.06-.98-.05-.33-.11-.61-.32-.86-.62-.38-.46-.52-.95-.44-1.47.08-.52.39-1,.93-1.44l2.32-1.91,1,1.22-2.17,1.78c-.27.22-.43.47-.46.73-.03.26.05.52.24.75.2.25.44.38.72.39.28.01.56-.1.85-.34l2.12-1.74,1.01,1.23-4,3.28-1.01-1.23ZM45.36,163.43c-.22.2-.46.33-.74.37-.28.04-.57,0-.87-.14-.3-.13-.6-.35-.88-.65-.48-.51-.75-1.02-.82-1.54-.06-.52.08-1.01.44-1.47l1.05,1.11c-.14.17-.2.36-.18.56.03.2.13.39.31.58.12.13.25.2.37.21s.24-.03.33-.13c.13-.12.17-.27.11-.45-.06-.18-.19-.43-.39-.77-.21-.33-.36-.62-.46-.87-.1-.24-.14-.5-.11-.78.03-.27.17-.53.43-.78.34-.32.73-.45,1.18-.39.45.06.9.32,1.34.79.45.48.69.97.72,1.48.03.51-.11.99-.44,1.43l-1.02-1.08c.12-.18.18-.36.16-.55-.02-.19-.1-.37-.26-.54-.12-.13-.24-.2-.36-.22-.12-.02-.23.03-.34.12-.12.11-.15.26-.09.43.06.18.18.43.38.75.2.35.36.65.46.9.1.25.14.52.11.8-.03.28-.18.55-.44.8ZM47.21,167.21l-.52-.49c-.44-.42-.68-.85-.72-1.3-.04-.45.18-.93.66-1.43l1.31-1.38-.5-.48.92-.97.5.48.88-.92,1.15,1.09-.88.92.75.72-.92.97-.75-.72-1.33,1.4c-.14.15-.21.28-.2.4,0,.12.08.24.22.38l.36.35-.94.99ZM50.82,170.32l.6-.72c-.3.15-.62.2-.95.16-.33-.05-.65-.2-.96-.45-.33-.27-.55-.6-.67-.98-.12-.38-.13-.79-.02-1.22.11-.43.34-.86.68-1.27.35-.42.73-.72,1.13-.9.41-.18.81-.24,1.2-.19.4.05.76.22,1.08.49.3.25.51.54.61.86.1.32.11.64.01.97l.6-.72,1.21,1.01-3.33,3.97-1.21-1.01ZM53.08,172.1l3.1-4.14,1.27.95-3.1,4.15-1.27-.95ZM59.73,176.75l-1.32-.88,1.57-2.35c.19-.29.27-.56.22-.83-.04-.26-.19-.48-.44-.65-.27-.18-.54-.24-.81-.17-.27.07-.51.26-.72.57l-1.52,2.29-1.32-.88,2.87-4.31,1.32.88-.53.79c.3-.17.61-.26.96-.24.34.02.68.13,1.01.35.49.33.78.76.85,1.28.07.52-.09,1.07-.47,1.65l-1.67,2.5ZM64.04,179.22l.46-.82c-.27.2-.57.31-.91.33-.34.02-.68-.07-1.02-.27-.37-.21-.65-.49-.84-.84-.19-.35-.27-.75-.25-1.2.03-.45.17-.9.43-1.37.27-.47.58-.84.95-1.09.37-.25.75-.39,1.15-.41.4-.02.78.07,1.16.28.35.19.6.44.76.73.16.3.22.61.19.95l.46-.82,1.38.77-2.53,4.52-1.38-.77ZM70.75,182.23c-.4.05-.79-.01-1.17-.19-.36-.17-.63-.39-.81-.67-.18-.28-.27-.59-.26-.93l-.39.85-1.44-.67,2.88-6.23,1.44.67-1.1,2.38c.25-.23.54-.36.87-.41.33-.04.68.02,1.04.18.39.18.69.44.91.77.22.34.33.72.34,1.17,0,.44-.1.91-.33,1.41-.23.49-.51.87-.86,1.16-.35.28-.72.45-1.11.5ZM72.62,183.28l2.53-6.38,1.48.59-2.53,6.38-1.48-.59ZM80.82,183.34c-.04.12-.1.25-.18.39l-3.4-1.15c-.11.37-.1.67.01.89.12.22.3.37.57.46.22.08.43.08.61.02.18-.06.33-.17.44-.33l1.59.54c-.18.32-.43.59-.74.79-.31.2-.66.32-1.04.36-.39.04-.79,0-1.19-.14-.48-.16-.87-.41-1.18-.73-.3-.33-.5-.72-.58-1.17s-.04-.93.14-1.44c.17-.52.43-.93.76-1.23.34-.31.73-.5,1.17-.58.44-.08.91-.03,1.39.13.49.16.88.41,1.18.73.3.32.49.7.57,1.13.08.43.04.88-.12,1.35ZM87.26,187.78l-.13-1.26-2.4-.55-.67,1.08-1.63-.37,3.8-5.81,1.78.41.88,6.89-1.64-.38ZM94.95,189.03c-.07.48-.23.89-.47,1.25-.24.36-.57.62-.98.79-.41.17-.9.21-1.46.13-.77-.11-1.36-.39-1.77-.82-.41-.43-.61-.97-.61-1.61l1.55.23c.02.22.11.39.26.54.16.14.38.24.66.28.32.05.6,0,.83-.17.23-.16.37-.44.43-.85l.13-.9c-.18.29-.42.5-.73.63-.31.14-.66.18-1.05.12-.42-.06-.78-.22-1.09-.49-.3-.26-.52-.6-.65-1.03-.13-.43-.16-.91-.08-1.44.08-.54.24-.99.5-1.36.25-.37.56-.63.92-.79.36-.16.76-.21,1.18-.15.39.06.71.2.97.42.25.22.43.49.52.82l.14-.93,1.56.23-.75,5.09ZM99.93,185.94l-.45-.04c-.42-.03-.75.03-1,.19-.25.16-.39.45-.42.88l-.2,2.35-1.58-.14.44-5.16,1.58.14-.08.97c.22-.3.5-.52.83-.68.33-.16.67-.22,1.04-.19l-.14,1.69ZM102.04,189.57l-1.59-.07.23-5.17,1.59.07-.23,5.17ZM102.21,183.52c-.18.15-.41.22-.7.21-.28-.01-.51-.1-.67-.27-.17-.17-.24-.37-.23-.6.01-.24.11-.44.29-.59.18-.15.41-.22.7-.21.28.01.51.1.68.27.17.16.24.37.23.61-.01.23-.11.43-.29.58ZM107.34,189.12c-.45.37-1.01.56-1.68.56-.51,0-.96-.1-1.35-.31s-.7-.52-.93-.92c-.23-.4-.34-.87-.34-1.41,0-.54.1-1.02.32-1.42.22-.4.52-.71.92-.92.39-.22.85-.33,1.35-.33.67,0,1.23.18,1.68.54.45.37.74.87.86,1.51h-1.68c-.05-.21-.15-.38-.31-.51-.16-.12-.35-.18-.59-.18-.28,0-.51.11-.68.33-.18.22-.27.54-.26.96,0,.42.09.74.27.96.18.22.41.33.69.32.24,0,.43-.06.58-.19.15-.12.26-.3.3-.52h1.68c-.11.63-.39,1.14-.84,1.51ZM112.87,189.27l-.07-.93c-.12.31-.33.57-.6.77-.28.2-.61.32-1,.35-.59.05-1.08-.11-1.46-.48-.38-.37-.6-.9-.65-1.59l-.24-3,1.57-.13.22,2.8c.03.35.14.62.34.8.2.18.45.26.76.23.32-.03.57-.15.73-.37.17-.22.24-.52.21-.89l-.22-2.74,1.59-.13.41,5.16-1.59.13ZM115.74,188.95l-.92-6.8,1.57-.21.92,6.8-1.57.21ZM120.74,188.17c-.6.11-1.09.04-1.47-.2-.39-.24-.64-.7-.76-1.38l-.33-1.87-.68.12-.23-1.32.68-.12-.22-1.25,1.56-.28.22,1.25,1.02-.18.23,1.32-1.02.18.34,1.9c.04.2.1.33.2.4.1.06.24.08.44.05l.49-.09.24,1.34-.7.12ZM126.01,187.02l-.22-.91c-.07.33-.23.62-.47.86-.24.24-.55.41-.93.5-.58.14-1.08.06-1.52-.25-.43-.3-.73-.79-.89-1.46l-.71-2.92,1.53-.37.66,2.73c.08.34.24.59.46.73.22.15.48.18.78.11.31-.08.54-.23.67-.48.13-.24.15-.55.07-.91l-.64-2.67,1.55-.37,1.22,5.03-1.55.37ZM130.58,182.01c-.4.12-.69.31-.86.55-.17.24-.19.56-.06.97l.7,2.25-1.52.47-1.53-4.95,1.52-.47.29.93c.1-.36.27-.67.51-.94s.54-.46.89-.57l.5,1.62-.43.14ZM136.33,183.69l-.33-.88c-.02.34-.13.64-.33.91-.2.27-.49.47-.86.61-.4.15-.79.19-1.19.11-.39-.08-.75-.27-1.07-.58-.32-.31-.58-.71-.77-1.21-.19-.51-.27-.98-.23-1.43.04-.44.18-.82.42-1.14.24-.32.56-.56.96-.71.37-.14.72-.18,1.05-.11.33.07.61.22.85.46l-.33-.88,1.47-.56,1.84,4.84-1.47.56ZM138.98,182.58l-2.79-6.27,1.45-.64,2.79,6.27-1.45.64ZM146.51,178.65c-.22.32-.55.59-.98.82-.65.35-1.27.48-1.86.39-.59-.09-1.06-.41-1.4-.96l1.49-.8c.14.21.31.34.51.39.2.05.4.03.61-.09.18-.1.3-.22.35-.37.05-.15.03-.31-.06-.48-.08-.15-.19-.24-.34-.29-.15-.05-.31-.06-.48-.05-.18.01-.41.05-.71.09-.43.07-.8.11-1.09.12-.29,0-.59-.06-.88-.2-.29-.14-.53-.4-.73-.77-.19-.34-.26-.69-.22-1.03.04-.34.18-.67.41-.96.24-.3.55-.56.95-.77.64-.34,1.24-.47,1.78-.36.54.1.98.41,1.32.91l-1.51.81c-.13-.18-.28-.29-.45-.34-.17-.05-.35-.03-.54.08-.16.09-.27.2-.33.34-.05.14-.04.3.06.47.07.14.18.23.32.28.14.05.3.06.46.05.17-.01.4-.04.71-.09.44-.07.81-.11,1.11-.11.3,0,.6.07.89.21.29.14.54.4.74.78.16.31.24.63.22.97-.02.34-.14.67-.36.98ZM151.61,175.5c-.23.4-.56.73-1,1.01-.43.27-.88.43-1.34.47-.46.04-.89-.05-1.3-.27-.41-.22-.76-.55-1.05-1.01-.29-.46-.44-.91-.46-1.38-.02-.46.09-.89.32-1.29.23-.4.56-.73,1-1.01.43-.27.88-.43,1.34-.46.46-.04.89.06,1.3.27.41.22.76.55,1.05,1.01s.44.91.46,1.38c.02.46-.09.89-.32,1.29ZM153.67,174.42l-3.96-5.61,1.3-.91,3.96,5.61-1.3.91ZM158.84,170.55l-.58-.74c.07.33.05.66-.07.98-.12.32-.33.61-.64.85-.47.37-.96.51-1.48.41-.52-.09-.99-.41-1.42-.96l-1.86-2.36,1.24-.98,1.74,2.21c.22.28.46.43.72.47.26.04.52-.04.76-.23.25-.2.39-.44.41-.71.02-.28-.09-.56-.32-.86l-1.7-2.16,1.25-.99,3.21,4.06-1.25.99ZM162.73,167.2c-.45.4-.9.61-1.35.61-.45,0-.91-.26-1.37-.77l-1.27-1.42-.52.46-.89-1,.52-.46-.85-.95,1.18-1.06.85.95.77-.69.89.99-.77.69,1.29,1.44c.14.15.26.23.38.24.12,0,.25-.06.4-.19l.37-.33.91,1.02-.53.48ZM164.02,166l-3.6-3.72,1.14-1.1,3.6,3.72-1.14,1.1ZM168.51,161.02c-.12.44-.35.85-.7,1.23-.35.38-.74.64-1.18.8-.43.15-.88.18-1.33.08-.45-.1-.88-.34-1.27-.71-.39-.37-.66-.77-.8-1.21-.14-.44-.14-.89-.02-1.33.12-.45.36-.85.71-1.23.35-.38.74-.64,1.17-.79.43-.15.87-.18,1.33-.07.45.1.88.34,1.27.7.39.37.66.77.8,1.22.14.44.15.89.03,1.33ZM172.57,156.56l-2.2-1.76c-.27-.22-.54-.31-.8-.29-.27.02-.49.15-.68.39-.2.25-.28.51-.24.79.04.27.21.53.51.77l2.15,1.71-.99,1.24-4.05-3.23.99-1.24.74.59c-.15-.31-.2-.63-.16-.98.04-.34.19-.67.44-.98.37-.46.82-.71,1.35-.73.53-.03,1.06.18,1.6.61l2.35,1.88-.99,1.24ZM176.12,151.43c-.07.32-.22.66-.45,1-.4.58-.84.95-1.34,1.12-.49.17-1,.13-1.53-.12l.87-1.26c.2.11.39.13.58.06.19-.07.36-.21.51-.42.1-.15.15-.28.13-.41-.02-.12-.08-.22-.19-.3-.15-.1-.3-.11-.46,0-.16.1-.39.28-.67.54-.28.27-.53.48-.75.63-.22.15-.46.24-.73.27-.27.03-.56-.06-.85-.26-.38-.26-.59-.62-.63-1.08-.04-.45.13-.94.49-1.47.37-.54.8-.88,1.3-1.02s.99-.09,1.49.13l-.84,1.22c-.2-.08-.39-.1-.57-.04-.18.06-.34.18-.47.37-.1.15-.15.28-.14.4.01.12.08.22.19.3.13.09.28.09.44,0,.16-.09.38-.27.65-.52.3-.27.56-.49.79-.64.22-.15.48-.25.76-.28.28-.03.58.06.88.27.24.17.42.38.51.65.1.26.11.56.05.88Z"/>
      <path class="cls-2" d="M165.68,159.24c-.3,0-.55.11-.76.33-.21.22-.3.48-.28.79.02.3.18.59.49.87.3.28.6.42.9.42.3,0,.55-.12.76-.34s.3-.48.28-.78-.18-.59-.49-.87c-.3-.28-.61-.42-.91-.42Z"/>
      <path class="cls-2" d="M92.82,184.85c-.34-.05-.62.02-.86.21-.24.19-.38.48-.44.87-.06.39,0,.71.17.96.17.25.43.4.76.45.33.05.62-.02.86-.22.24-.2.39-.48.45-.86.06-.39,0-.71-.18-.96-.18-.26-.43-.41-.76-.45Z"/>
      <path class="cls-2" d="M70.76,178.27c-.3-.14-.6-.15-.89-.04-.29.12-.51.35-.68.7-.16.35-.19.67-.1.97.1.3.3.52.6.66.31.14.6.16.89.04.28-.12.51-.35.67-.71.17-.36.2-.68.11-.97-.1-.29-.3-.51-.61-.65Z"/>
      <path class="cls-2" d="M51.57,166.36c-.3.04-.58.21-.83.51-.25.3-.37.61-.36.91.02.3.15.56.42.78.26.21.54.3.85.26.31-.04.59-.2.84-.5.25-.3.37-.6.35-.91-.02-.31-.16-.57-.41-.79-.26-.22-.54-.31-.84-.27Z"/>
      <path class="cls-2" d="M64.93,175.3c-.3-.17-.59-.2-.88-.11-.29.09-.53.31-.72.66-.19.35-.25.67-.18.96s.26.53.55.69c.29.16.59.2.88.1.3-.1.54-.31.73-.64.19-.34.25-.66.17-.96-.08-.3-.26-.53-.55-.7Z"/>
      <path class="cls-2" d="M209.68,115.8c-5.32.56-10.64,1.09-15.96,1.7-.91.1-1.56-.07-2.27-.66-3.76-3.11-7.58-6.15-11.36-9.23-.61-.49-.92-.59-1.04.39-.26,2.09-.57,4.17-.97,6.24-1.21,6.33-2.87,12.54-5.28,18.53-.84,2.1-.79,2.1.73,3.03,6.75,4.13,13.48,8.29,20.25,12.39,1.35.82,2.22,1.88,2.57,3.41.42,1.8.85,3.6,1.32,5.55.17-.24.26-.33.31-.44,6.51-12.65,10.83-25.99,12.69-40.11.14-1.03-.39-.87-1-.81Z"/>
      <path class="cls-2" d="M16.65,148.37c6.9-4.22,13.77-8.5,20.67-12.72.79-.48.98-.88.63-1.77-2.14-5.37-3.67-10.92-4.92-16.55-.73-3.32-1.2-6.69-1.68-10.29-4.29,3.23-8.27,6.41-12.14,9.73-.85.73-1.66.93-2.74.81-4.82-.54-9.64-1.03-14.46-1.5-2.18-.22-2.18-.19-1.84,1.9.02.12.03.25.05.38.38,2.4.77,4.81,1.27,7.19,2.28,10.77,5.93,21.05,10.88,30.88.11.22.13.51.46.46.54-1.91,1.08-3.82,1.61-5.72.35-1.24,1.1-2.1,2.21-2.78Z"/>
      <path class="cls-2" d="M128.18,134.86s-.05.05-.07.08c0,0,0,0,0,0,0,0,0,.01.02.03,0,0,0,0,0,0,.01.01.03.03.04.04.02-.03.05-.05.07-.08.02-.02.04-.05.06-.07,0,0-.07-.08-.07-.08h0s-.04.05-.06.07Z"/>
      <path class="cls-2" d="M22.62,95.29l-5.97-.42.18-2.55c.09-1.33-.06-2.48-.47-3.44-.41-.96-1.01-1.71-1.8-2.24-.79-.53-1.72-.83-2.78-.91-1.7-.12-3.09.31-4.17,1.3s-1.69,2.49-1.83,4.51l-.47,6.66,17.01,1.19.29-4.11ZM13.51,92.55l-.15,2.09-4.43-.31.15-2.09c.12-1.65.92-2.43,2.41-2.32,1.46.1,2.13.98,2.02,2.63Z"/>
      <path class="cls-2" d="M24.67,80.56l-6.23-1.63.24-.91,7.16-1.94,1.16-4.41-7.51,2.22c.02-1.34-.31-2.45-.97-3.33-.67-.88-1.6-1.48-2.8-1.79-1.01-.26-1.97-.27-2.87-.03-.9.25-1.7.76-2.39,1.54-.69.78-1.2,1.83-1.54,3.13l-1.78,6.81,16.49,4.32,1.05-3.99ZM16.36,75.74l-.65,2.47-4.18-1.09.65-2.47c.2-.78.54-1.31,1.02-1.59.47-.28,1.04-.34,1.69-.17.68.18,1.15.5,1.4.97.25.47.27,1.09.07,1.89Z"/>
      <rect class="cls-2" x="18.89" y="56.01" width="4.12" height="17.05" transform="translate(-46.68 59.05) rotate(-67.39)"/>
      <polygon class="cls-2" points="32.6 59.57 23.67 53.83 34.59 56.47 36.53 53.46 29.61 44.65 38.51 50.38 40.74 46.91 26.5 37.75 23.79 41.97 31.27 52.14 18.86 49.64 16.13 53.88 30.37 63.04 32.6 59.57"/>
      <polygon class="cls-2" points="50.32 37.55 47.98 35.22 43.4 39.82 40.72 37.15 44.79 33.06 42.58 30.87 38.52 34.95 35.99 32.43 40.56 27.84 38.24 25.52 30.75 33.04 42.84 45.07 50.32 37.55"/>
      <path class="cls-2" d="M54.56,28.95c1.26.79,2.61,1.18,4.06,1.18,1.45,0,2.89-.43,4.32-1.27,1.87-1.1,3.13-2.51,3.77-4.22.64-1.71.66-3.51.04-5.38l-3.76,2.21c.11.83,0,1.61-.35,2.33-.35.73-.92,1.32-1.7,1.79-1.04.61-2.1.73-3.18.35-1.08-.38-2-1.21-2.75-2.48-.75-1.28-1.03-2.48-.84-3.62.19-1.14.8-2.01,1.84-2.62.79-.46,1.59-.67,2.39-.62.8.05,1.54.33,2.22.85l3.76-2.21c-1.35-1.46-2.92-2.33-4.73-2.59-1.8-.26-3.64.16-5.51,1.26-1.43.84-2.5,1.89-3.2,3.16-.71,1.27-1.03,2.64-.95,4.12.08,1.48.55,2.95,1.4,4.41.86,1.46,1.91,2.58,3.17,3.37Z"/>
      <path class="cls-2" d="M74.96,19.54l6.08-1.97,1.97,2.63,4.18-1.35-11.15-14.19-4.52,1.46-.73,18.03,4.13-1.34.05-3.29ZM75.12,9.6l3.95,5.31-4.06,1.31.11-6.63Z"/>
      <polygon class="cls-2" points="92.77 18.25 91.73 7.84 99.63 17.57 103.74 17.16 102.05 .19 97.95 .6 98.99 11.11 91.08 1.28 86.98 1.69 88.67 18.66 92.77 18.25"/>
      <polygon class="cls-2" points="117.44 15.06 110.98 14.47 111.33 10.7 117.07 11.22 117.35 8.12 111.61 7.6 111.93 4.05 118.39 4.63 118.69 1.37 108.12 .41 106.58 17.38 117.15 18.35 117.44 15.06"/>
      <path class="cls-2" d="M131.45,26.86l2.22.73.07-.21c-1.57-2.33-2.48-4.83-2.74-7.49-.26-2.66.03-5.26.87-7.8.84-2.54,2.16-4.8,3.95-6.77,1.79-1.97,4.02-3.43,6.67-4.39l.07-.21-2.22-.73c-2.28.74-4.36,2.12-6.25,4.14-1.89,2.03-3.3,4.45-4.24,7.27-.93,2.82-1.25,5.62-.94,8.38s1.15,5.11,2.54,7.06Z"/>
      <path class="cls-2" d="M139.76,25.63l3.23-6.09,2.85,1.51c1.72.91,3.22,1.18,4.5.81,1.28-.37,2.25-1.18,2.92-2.45.67-1.26.78-2.53.34-3.8-.44-1.27-1.5-2.35-3.16-3.23l-4.79-2.54-7.83,14.76,1.94,1.03ZM146.77,12.42l2.86,1.51c2.1,1.11,2.66,2.6,1.67,4.46-.47.88-1.09,1.43-1.87,1.64-.78.21-1.7.04-2.76-.53l-2.86-1.51,2.96-5.58Z"/>
      <polygon class="cls-2" points="171.39 26.96 169.56 25.51 156.46 33.45 161.3 18.93 159.47 17.47 154.1 34.56 155.95 36.03 171.39 26.96"/>
      <polygon class="cls-2" points="164.96 44.65 166.41 46.3 177.66 36.46 180.57 39.78 181.89 38.62 174.64 30.33 173.32 31.48 176.22 34.81 164.96 44.65"/>
      <path class="cls-2" d="M167.12,53.72l-.18.11,1.23,1.99c2.22.9,4.7,1.18,7.46.84,2.76-.34,5.4-1.29,7.93-2.85,2.53-1.56,4.56-3.5,6.1-5.8,1.53-2.31,2.4-4.65,2.59-7.04l-1.23-1.99-.18.11c-.32,2.79-1.23,5.28-2.73,7.49-1.5,2.21-3.39,4.02-5.67,5.42-2.28,1.41-4.74,2.29-7.4,2.64-2.65.35-5.29.04-7.91-.93Z"/>
      <polygon class="cls-2" points="183.28 78.51 184.89 77.99 183.09 72.42 197.39 67.81 196.72 65.73 180.81 70.84 183.28 78.51"/>
      <polygon class="cls-2" points="184.48 84.51 184.84 86.67 199.58 84.18 200.32 88.53 202.05 88.24 200.22 77.37 198.48 77.67 199.22 82.02 184.48 84.51"/>
      <path class="cls-2" d="M185.81,99.19c-.04,2.7.65,4.84,2.08,6.42,1.43,1.58,3.45,2.39,6.05,2.44,2.6.04,4.67-.71,6.21-2.24,1.54-1.54,2.32-3.65,2.37-6.35l.08-5.28-16.71-.26-.08,5.28ZM187.55,96.13l13.17.21-.05,3.09c-.03,2.11-.64,3.7-1.81,4.79-1.18,1.09-2.8,1.62-4.87,1.59-2.07-.03-3.68-.61-4.82-1.74-1.14-1.13-1.69-2.74-1.66-4.85l.05-3.09Z"/>
    </g>
  </g>
</svg>